<svg version="1.1" x="0" y="0" id="i8sd176o1" diagram-revision="30" width="1005.0999999999999" height="535" xmlns="http://www.w3.org/2000/svg" xmlns:xml="http://www.w3.org/XML/1998/namespace" xmlns:xlink="http://www.w3.org/1999/xlink">
  <defs/>
  <g id="i8sd176o-ko34" transform="translate(5,160)">
    <desc>root/umlClass/class?version=3&amp;author=Cinergix</desc>
    <g id="image">
      <g id="graphics">
        <rect x="1" y="1" width="178.0567710995674" height="31" fill="none" stroke="#35a6e2" stroke-width="2" stroke-opacity="0" stroke-linejoin="round" stroke-linecap="round"/>
        <rect x="1" y="32" width="178.0567710995674" height="52.00446419278853" fill="none" stroke="#35a6e2" stroke-width="2" stroke-opacity="0" stroke-linejoin="round" stroke-linecap="round"/>
        <rect x="1" y="1" width="178.0567710995674" height="83.00446419278853" fill="#ffffff" stroke="#35a6e2" stroke-width="2" stroke-linejoin="round" stroke-linecap="round"/>
        <path d="M 1 32 L 179.0567710995674 32 " fill="none" stroke="#35a6e2" stroke-width="2" stroke-linejoin="round" stroke-linecap="round"/>
      </g>
      <text x="0" y="0" width="108.45" height="18.45" transform="translate(36.5,4)">
        <tspan x="0" y="13.361186027526854" style="font-family:Lato;font-size:14px;fill:#4b4b4b;font-weight:bold;">BinaryCondition</tspan>
      </text>
      <text x="0" y="0" width="37.35" height="18.45" transform="translate(6,35)">
        <tspan x="0" y="14.411186027526854" style="font-family:Lato;font-size:14px;fill:#4b4b4b;">+ left</tspan>
      </text>
      <text x="0" y="0" width="45.1" height="18.45" transform="translate(6,53)">
        <tspan x="0" y="13.361186027526854" style="font-family:Lato;font-size:14px;fill:#4b4b4b;">+ right</tspan>
      </text>
    </g>
  </g>
  <g id="i8sd176o-ko36" transform="translate(375.00000000000006,160)">
    <desc>root/umlClass/class?version=3&amp;author=Cinergix</desc>
    <g id="image">
      <g id="graphics">
        <rect x="1" y="1" width="177.99842834472656" height="31" fill="none" stroke="#35a6e2" stroke-width="2" stroke-opacity="0" stroke-linejoin="round" stroke-linecap="round"/>
        <rect x="1" y="32" width="177.99842834472656" height="52.00446419278855" fill="none" stroke="#35a6e2" stroke-width="2" stroke-opacity="0" stroke-linejoin="round" stroke-linecap="round"/>
        <rect x="1" y="1" width="177.99842834472656" height="83.00446419278855" fill="#ffffff" stroke="#35a6e2" stroke-width="2" stroke-linejoin="round" stroke-linecap="round"/>
        <path d="M 1 32 L 178.99842834472656 32 " fill="none" stroke="#35a6e2" stroke-width="2" stroke-linejoin="round" stroke-linecap="round"/>
      </g>
      <text x="0" y="0" width="79.55" height="18.45" transform="translate(50.45,4)">
        <tspan x="0" y="13.361186027526854" style="font-family:Lato;font-size:14px;fill:#4b4b4b;font-weight:bold;">InCondition</tspan>
      </text>
      <text x="0" y="0" width="52.9" height="18.45" transform="translate(6,35)">
        <tspan x="0" y="14.411186027526854" style="font-family:Lato;font-size:14px;fill:#4b4b4b;">+ invert</tspan>
      </text>
      <text x="0" y="0" width="7.35" height="18.45" transform="translate(6,53)">
        <tspan x="0" y="13.361186027526854" style="font-family:Lato;font-size:14px;fill:#4b4b4b;"/>
      </text>
    </g>
  </g>
  <g id="i8sd176o-ko38" transform="translate(560,160)">
    <desc>root/umlClass/class?version=3&amp;author=Cinergix</desc>
    <g id="image">
      <g id="graphics">
        <rect x="1" y="1" width="177.99842834472656" height="31" fill="none" stroke="#35a6e2" stroke-width="2" stroke-opacity="0" stroke-linejoin="round" stroke-linecap="round"/>
        <rect x="1" y="32" width="177.99842834472656" height="52.00446419278853" fill="none" stroke="#35a6e2" stroke-width="2" stroke-opacity="0" stroke-linejoin="round" stroke-linecap="round"/>
        <rect x="1" y="1" width="177.99842834472656" height="83.00446419278853" fill="#ffffff" stroke="#35a6e2" stroke-width="2" stroke-linejoin="round" stroke-linecap="round"/>
        <path d="M 1 32 L 178.99842834472656 32 " fill="none" stroke="#35a6e2" stroke-width="2" stroke-linejoin="round" stroke-linecap="round"/>
      </g>
      <text x="0" y="0" width="104" height="18.45" transform="translate(38.45,4)">
        <tspan x="0" y="13.361186027526854" style="font-family:Lato;font-size:14px;fill:#4b4b4b;font-weight:bold;">IsNullCondition</tspan>
      </text>
      <text x="0" y="0" width="52.9" height="18.45" transform="translate(6,35)">
        <tspan x="0" y="14.411186027526854" style="font-family:Lato;font-size:14px;fill:#4b4b4b;">+ invert</tspan>
      </text>
      <text x="0" y="0" width="7.35" height="18.45" transform="translate(6,53)">
        <tspan x="0" y="13.361186027526854" style="font-family:Lato;font-size:14px;fill:#4b4b4b;"/>
      </text>
    </g>
  </g>
  <g id="i8sd176o-ko40" transform="translate(190,160)">
    <desc>root/umlClass/class?version=3&amp;author=Cinergix</desc>
    <g id="image">
      <g id="graphics">
        <rect x="1" y="1" width="177.99842834472656" height="31" fill="none" stroke="#35a6e2" stroke-width="2" stroke-opacity="0" stroke-linejoin="round" stroke-linecap="round"/>
        <rect x="1" y="32" width="177.99842834472656" height="52.00446419278853" fill="none" stroke="#35a6e2" stroke-width="2" stroke-opacity="0" stroke-linejoin="round" stroke-linecap="round"/>
        <rect x="1" y="1" width="177.99842834472656" height="83.00446419278853" fill="#ffffff" stroke="#35a6e2" stroke-width="2" stroke-linejoin="round" stroke-linecap="round"/>
        <path d="M 1 32 L 178.99842834472656 32 " fill="none" stroke="#35a6e2" stroke-width="2" stroke-linejoin="round" stroke-linecap="round"/>
      </g>
      <text x="0" y="0" width="128.45" height="18.45" transform="translate(26.95,4)">
        <tspan x="0" y="13.361186027526854" style="font-family:Lato;font-size:14px;fill:#4b4b4b;font-weight:bold;">PredicateCondition</tspan>
      </text>
      <text x="0" y="0" width="52.9" height="18.45" transform="translate(6,35)">
        <tspan x="0" y="14.411186027526854" style="font-family:Lato;font-size:14px;fill:#4b4b4b;">+ invert</tspan>
      </text>
    </g>
  </g>
  <g id="i8sd176o-ko42" transform="translate(745.05,160)">
    <desc>root/umlClass/class?version=3&amp;author=Cinergix</desc>
    <g id="image">
      <g id="graphics">
        <rect x="1" y="1" width="177.99842834472656" height="31" fill="none" stroke="#35a6e2" stroke-width="2" stroke-opacity="0" stroke-linejoin="round" stroke-linecap="round"/>
        <rect x="1" y="32" width="177.99842834472656" height="52.00446419278853" fill="none" stroke="#35a6e2" stroke-width="2" stroke-opacity="0" stroke-linejoin="round" stroke-linecap="round"/>
        <rect x="1" y="1" width="177.99842834472656" height="83.00446419278853" fill="#ffffff" stroke="#35a6e2" stroke-width="2" stroke-linejoin="round" stroke-linecap="round"/>
        <path d="M 1 32 L 178.99842834472656 32 " fill="none" stroke="#35a6e2" stroke-width="2" stroke-linejoin="round" stroke-linecap="round"/>
      </g>
      <text x="0" y="0" width="90.65" height="18.45" transform="translate(44.45,4)">
        <tspan x="0" y="13.361186027526854" style="font-family:Lato;font-size:14px;fill:#4b4b4b;font-weight:bold;">FilterListBase</tspan>
      </text>
      <text x="0" y="0" width="7.35" height="18.45" transform="translate(6,35)">
        <tspan x="0" y="14.411186027526854" style="font-family:Lato;font-size:14px;fill:#4b4b4b;"/>
      </text>
    </g>
  </g>
  <g id="i8sd176o-ko44" transform="translate(820.05,265)">
    <desc>root/umlClass/class?version=3&amp;author=Cinergix</desc>
    <g id="image">
      <g id="graphics">
        <rect x="1" y="1" width="177.99842834472656" height="31" fill="none" stroke="#35a6e2" stroke-width="2" stroke-opacity="0" stroke-linejoin="round" stroke-linecap="round"/>
        <rect x="1" y="32" width="177.99842834472656" height="52.00446419278853" fill="none" stroke="#35a6e2" stroke-width="2" stroke-opacity="0" stroke-linejoin="round" stroke-linecap="round"/>
        <rect x="1" y="1" width="177.99842834472656" height="83.00446419278853" fill="#ffffff" stroke="#35a6e2" stroke-width="2" stroke-linejoin="round" stroke-linecap="round"/>
        <path d="M 1 32 L 178.99842834472656 32 " fill="none" stroke="#35a6e2" stroke-width="2" stroke-linejoin="round" stroke-linecap="round"/>
      </g>
      <text x="0" y="0" width="109.55" height="18.45" transform="translate(35.95,4)">
        <tspan x="0" y="13.361186027526854" style="font-family:Lato;font-size:14px;fill:#4b4b4b;font-weight:bold;">FilterAlternative</tspan>
      </text>
      <text x="0" y="0" width="7.35" height="18.45" transform="translate(6,35)">
        <tspan x="0" y="13.311186027526857" style="font-family:Lato;font-size:14px;fill:#4b4b4b;"/>
      </text>
    </g>
  </g>
  <g id="i8sd176o-ko46" transform="translate(820.0999999999999,355)">
    <desc>root/umlClass/class?version=3&amp;author=Cinergix</desc>
    <g id="image">
      <g id="graphics">
        <rect x="1" y="1" width="177.99842834472656" height="31" fill="none" stroke="#35a6e2" stroke-width="2" stroke-opacity="0" stroke-linejoin="round" stroke-linecap="round"/>
        <rect x="1" y="32" width="177.99842834472656" height="52.00446419278853" fill="none" stroke="#35a6e2" stroke-width="2" stroke-opacity="0" stroke-linejoin="round" stroke-linecap="round"/>
        <rect x="1" y="1" width="177.99842834472656" height="83.00446419278853" fill="#ffffff" stroke="#35a6e2" stroke-width="2" stroke-linejoin="round" stroke-linecap="round"/>
        <path d="M 1 32 L 178.99842834472656 32 " fill="none" stroke="#35a6e2" stroke-width="2" stroke-linejoin="round" stroke-linecap="round"/>
      </g>
      <text x="0" y="0" width="120.65" height="18.45" transform="translate(30.45,4)">
        <tspan x="0" y="13.361186027526854" style="font-family:Lato;font-size:14px;fill:#4b4b4b;font-weight:bold;">FilterCombination</tspan>
      </text>
      <text x="0" y="0" width="7.35" height="18.45" transform="translate(6,35)">
        <tspan x="0" y="13.311186027526857" style="font-family:Lato;font-size:14px;fill:#4b4b4b;"/>
      </text>
    </g>
  </g>
  <g id="i8sd176o-ko134" transform="translate(375.00000000000006,5)">
    <desc>root/umlClass/interface?version=3&amp;author=Cinergix</desc>
    <g id="image">
      <g id="graphics">
        <rect x="1" y="1" width="177.99771118164063" height="44" fill="none" stroke="#35a6e2" stroke-width="2" stroke-opacity="0" stroke-linejoin="round" stroke-linecap="round"/>
        <rect x="1" y="45" width="177.99771118164063" height="52" fill="none" stroke="#35a6e2" stroke-width="2" stroke-opacity="0" stroke-linejoin="round" stroke-linecap="round"/>
        <rect x="1" y="1" width="177.99771118164063" height="96" fill="#ffffff" stroke="#35a6e2" stroke-width="2" stroke-linejoin="round" stroke-linecap="round"/>
        <path d="M 1 45 L 178.99771118164063 45 " fill="none" stroke="#35a6e2" stroke-width="2" stroke-linejoin="round" stroke-linecap="round"/>
      </g>
      <text x="0" y="0" width="91.8" height="18.45" transform="translate(44.45,4)">
        <tspan x="0" y="13.361186027526854" style="font-family:Lato;font-size:14px;fill:#4b4b4b;font-weight:bold;">&lt;&lt;Abstract&gt;&gt;</tspan>
      </text>
      <text x="0" y="0" width="67.35" height="18.45" transform="translate(56.45,22)">
        <tspan x="0" y="13.311186027526857" style="font-family:Lato;font-size:14px;fill:#4b4b4b;font-weight:bold;">Condition</tspan>
      </text>
      <text x="0" y="0" width="7.35" height="18.45" transform="translate(6,48)">
        <tspan x="0" y="13.361186027526854" style="font-family:Lato;font-size:14px;fill:#4b4b4b;"/>
      </text>
    </g>
  </g>
  <g id="Connector-i8sd176o-ko136" transform="translate(-234.95,-370)">
    <g id="graphics">
      <path d="M 1015 615 L 1015 625.0022320963942 L 1015.0000000000001 625.0022320963942 L 1015.0000000000001 680 L 1055 680 " fill="none" stroke="#f6902a" stroke-width="1.5"/>
    </g>
    <g id="fromIcon" transform="translate(1015,615)">
      <metadata id="metadata3277">
        <aaa:RDF xmlns:aaa="http://www.w3.org/1999/02/22-rdf-syntax-ns#"/>
      </metadata>
      <aaa:namedview pagecolor="#ffffff" bordercolor="#666666" borderopacity="1" objecttolerance="10" gridtolerance="10" guidetolerance="10" aab:pageopacity="0" aab:pageshadow="2" aab:window-width="1366" aab:window-height="706" id="namedview3273" showgrid="true" aab:zoom="45.254834" aab:cx="5.3422801" aab:cy="5.5253458" aab:window-x="-8" aab:window-y="-8" aab:window-maximized="1" aab:current-layer="Layer_1" xmlns:aaa="http://sodipodi.sourceforge.net/DTD/sodipodi-0.dtd" xmlns:aab="http://www.inkscape.org/namespaces/inkscape"/>
      <polygon points="0,0 -8,8 8,8 " id="polygon3271" transform="translate(0.00396088,0.7512019)" style="stroke-width:1.5;stroke:#f6902a;fill:#ffffff;" stroke="#f6902a" stroke-width="1.5"/>
    </g>
  </g>
  <g id="Connector-i8sd176o-ko137" transform="translate(-234.95,-370)">
    <g id="graphics">
      <path d="M 1015 615 L 1015 621.5022320963942 L 1015.0000000000001 621.5022320963942 L 1015.0000000000001 770 L 1055.05 770 " fill="none" stroke="#f6902a" stroke-width="1.5"/>
    </g>
    <g id="fromIcon" transform="translate(1015,615)">
      <metadata id="metadata3277">
        <aaa:RDF xmlns:aaa="http://www.w3.org/1999/02/22-rdf-syntax-ns#"/>
      </metadata>
      <aaa:namedview pagecolor="#ffffff" bordercolor="#666666" borderopacity="1" objecttolerance="10" gridtolerance="10" guidetolerance="10" aab:pageopacity="0" aab:pageshadow="2" aab:window-width="1366" aab:window-height="706" id="namedview3273" showgrid="true" aab:zoom="45.254834" aab:cx="5.3422801" aab:cy="5.5253458" aab:window-x="-8" aab:window-y="-8" aab:window-maximized="1" aab:current-layer="Layer_1" xmlns:aaa="http://sodipodi.sourceforge.net/DTD/sodipodi-0.dtd" xmlns:aab="http://www.inkscape.org/namespaces/inkscape"/>
      <polygon points="0,0 -8,8 8,8 " id="polygon3271" transform="translate(0.00396088,0.7512019)" style="stroke-width:1.5;stroke:#f6902a;fill:#ffffff;" stroke="#f6902a" stroke-width="1.5"/>
    </g>
  </g>
  <g id="Connector-i8sd176o-ko139" transform="translate(-234.95,-370)">
    <g id="graphics">
      <path d="M 699.95 475 L 699.95 501.5 L 329.95 501.5 L 329.95 530 " fill="none" stroke="#f6902a" stroke-width="1.5"/>
    </g>
    <g id="fromIcon" transform="translate(699.95,475)">
      <metadata id="metadata3277">
        <aaa:RDF xmlns:aaa="http://www.w3.org/1999/02/22-rdf-syntax-ns#"/>
      </metadata>
      <aaa:namedview pagecolor="#ffffff" bordercolor="#666666" borderopacity="1" objecttolerance="10" gridtolerance="10" guidetolerance="10" aab:pageopacity="0" aab:pageshadow="2" aab:window-width="1366" aab:window-height="706" id="namedview3273" showgrid="true" aab:zoom="45.254834" aab:cx="5.3422801" aab:cy="5.5253458" aab:window-x="-8" aab:window-y="-8" aab:window-maximized="1" aab:current-layer="Layer_1" xmlns:aaa="http://sodipodi.sourceforge.net/DTD/sodipodi-0.dtd" xmlns:aab="http://www.inkscape.org/namespaces/inkscape"/>
      <polygon points="0,0 -8,8 8,8 " id="polygon3271" transform="translate(0.00396088,0.7512019)" style="stroke-width:1.5;stroke:#f6902a;fill:#ffffff;" stroke="#f6902a" stroke-width="1.5"/>
    </g>
  </g>
  <g id="Connector-i8sd176o-ko141" transform="translate(-234.95,-370)">
    <g id="graphics">
      <path d="M 699.95 475 L 699.95 501.5 L 514.95 501.5 L 514.95 530 " fill="none" stroke="#f6902a" stroke-width="1.5"/>
    </g>
    <g id="fromIcon" transform="translate(699.95,475)">
      <metadata id="metadata3277">
        <aaa:RDF xmlns:aaa="http://www.w3.org/1999/02/22-rdf-syntax-ns#"/>
      </metadata>
      <aaa:namedview pagecolor="#ffffff" bordercolor="#666666" borderopacity="1" objecttolerance="10" gridtolerance="10" guidetolerance="10" aab:pageopacity="0" aab:pageshadow="2" aab:window-width="1366" aab:window-height="706" id="namedview3273" showgrid="true" aab:zoom="45.254834" aab:cx="5.3422801" aab:cy="5.5253458" aab:window-x="-8" aab:window-y="-8" aab:window-maximized="1" aab:current-layer="Layer_1" xmlns:aaa="http://sodipodi.sourceforge.net/DTD/sodipodi-0.dtd" xmlns:aab="http://www.inkscape.org/namespaces/inkscape"/>
      <polygon points="0,0 -8,8 8,8 " id="polygon3271" transform="translate(0.00396088,0.7512019)" style="stroke-width:1.5;stroke:#f6902a;fill:#ffffff;" stroke="#f6902a" stroke-width="1.5"/>
    </g>
  </g>
  <g id="Connector-i8sd176o-ko142" transform="translate(-234.95,-370)">
    <g id="graphics">
      <path d="M 699.95 475 L 699.95 530 " fill="none" stroke="#f6902a" stroke-width="1.5"/>
    </g>
    <g id="fromIcon" transform="translate(699.95,475)">
      <metadata id="metadata3277">
        <aaa:RDF xmlns:aaa="http://www.w3.org/1999/02/22-rdf-syntax-ns#"/>
      </metadata>
      <aaa:namedview pagecolor="#ffffff" bordercolor="#666666" borderopacity="1" objecttolerance="10" gridtolerance="10" guidetolerance="10" aab:pageopacity="0" aab:pageshadow="2" aab:window-width="1366" aab:window-height="706" id="namedview3273" showgrid="true" aab:zoom="45.254834" aab:cx="5.3422801" aab:cy="5.5253458" aab:window-x="-8" aab:window-y="-8" aab:window-maximized="1" aab:current-layer="Layer_1" xmlns:aaa="http://sodipodi.sourceforge.net/DTD/sodipodi-0.dtd" xmlns:aab="http://www.inkscape.org/namespaces/inkscape"/>
      <polygon points="0,0 -8,8 8,8 " id="polygon3271" transform="translate(0.00396088,0.7512019)" style="stroke-width:1.5;stroke:#f6902a;fill:#ffffff;" stroke="#f6902a" stroke-width="1.5"/>
    </g>
  </g>
  <g id="Connector-i8sd176o-ko144" transform="translate(-234.95,-370)">
    <g id="graphics">
      <path d="M 699.95 475 L 699.95 501.5 L 884.95 501.5 L 884.95 530 " fill="none" stroke="#f6902a" stroke-width="1.5"/>
    </g>
    <g id="fromIcon" transform="translate(699.95,475)">
      <metadata id="metadata3277">
        <aaa:RDF xmlns:aaa="http://www.w3.org/1999/02/22-rdf-syntax-ns#"/>
      </metadata>
      <aaa:namedview pagecolor="#ffffff" bordercolor="#666666" borderopacity="1" objecttolerance="10" gridtolerance="10" guidetolerance="10" aab:pageopacity="0" aab:pageshadow="2" aab:window-width="1366" aab:window-height="706" id="namedview3273" showgrid="true" aab:zoom="45.254834" aab:cx="5.3422801" aab:cy="5.5253458" aab:window-x="-8" aab:window-y="-8" aab:window-maximized="1" aab:current-layer="Layer_1" xmlns:aaa="http://sodipodi.sourceforge.net/DTD/sodipodi-0.dtd" xmlns:aab="http://www.inkscape.org/namespaces/inkscape"/>
      <polygon points="0,0 -8,8 8,8 " id="polygon3271" transform="translate(0.00396088,0.7512019)" style="stroke-width:1.5;stroke:#f6902a;fill:#ffffff;" stroke="#f6902a" stroke-width="1.5"/>
    </g>
  </g>
  <g id="Connector-i8sd176o-ko146" transform="translate(-234.95,-370)">
    <g id="graphics">
      <path d="M 699.95 475 L 699.95 501.5 L 1070 501.5 L 1070 530 " fill="none" stroke="#f6902a" stroke-width="1.5"/>
    </g>
    <g id="fromIcon" transform="translate(699.95,475)">
      <metadata id="metadata3277">
        <aaa:RDF xmlns:aaa="http://www.w3.org/1999/02/22-rdf-syntax-ns#"/>
      </metadata>
      <aaa:namedview pagecolor="#ffffff" bordercolor="#666666" borderopacity="1" objecttolerance="10" gridtolerance="10" guidetolerance="10" aab:pageopacity="0" aab:pageshadow="2" aab:window-width="1366" aab:window-height="706" id="namedview3273" showgrid="true" aab:zoom="45.254834" aab:cx="5.3422801" aab:cy="5.5253458" aab:window-x="-8" aab:window-y="-8" aab:window-maximized="1" aab:current-layer="Layer_1" xmlns:aaa="http://sodipodi.sourceforge.net/DTD/sodipodi-0.dtd" xmlns:aab="http://www.inkscape.org/namespaces/inkscape"/>
      <polygon points="0,0 -8,8 8,8 " id="polygon3271" transform="translate(0.00396088,0.7512019)" style="stroke-width:1.5;stroke:#f6902a;fill:#ffffff;" stroke="#f6902a" stroke-width="1.5"/>
    </g>
  </g>
  <g id="Connector-i8sd176o-ko147" transform="translate(-234.95,-370)">
    <g id="graphics">
      <path d="M 1125 530 L 1125 425 L 789.95 425 " fill="none" stroke="#f6902a" stroke-width="1.5"/>
    </g>
    <rect fill="#ffffff" x="0" y="0" width="54.45" height="15.55" transform="translate(1095.75,493.5)"/>
    <text x="0" y="0" width="58.4" height="19.55" transform="translate(1095.75,493.5)">
      <tspan x="11.1" y="15.583423233032226" style="font-family:Arial;font-size:12px;fill:#000000;">conditions</tspan>
    </text>
    <rect fill="#ffffff" x="0" y="0" width="17.8" height="12.2" transform="translate(804.95,416.4)"/>
    <text x="0" y="0" width="21.8" height="16.2" transform="translate(804.95,416.4)">
      <tspan x="11.15" y="12.20006742477417" style="font-family:Lato;font-size:12px;fill:#000000;">1..*</tspan>
    </text>
  </g>
  <g id="Enumeration-i8sd176o-ko148" transform="translate(5,330)">
    <desc>root/umlClass/enumClass?version=1&amp;author=Cinergix</desc>
    <g id="image">
      <g id="graphics">
        <rect x="1" y="1" width="178.0567821264267" height="44" fill="none" stroke="#35a6e2" stroke-width="2" stroke-opacity="0" stroke-linejoin="round" stroke-linecap="round"/>
        <rect x="1" y="45" width="178.0567821264267" height="152" fill="none" stroke="#35a6e2" stroke-width="2" stroke-opacity="0" stroke-linejoin="round" stroke-linecap="round"/>
        <rect x="1" y="1" width="178.0567821264267" height="196" fill="#ffffff" stroke="#35a6e2" stroke-width="2" stroke-linejoin="round" stroke-linecap="round"/>
        <path d="M 1 45 L 179.0567821264267 45 " fill="none" stroke="#35a6e2" stroke-width="2" stroke-linejoin="round" stroke-linecap="round"/>
      </g>
      <text x="0" y="0" width="119.55" height="18.45" transform="translate(31,4)">
        <tspan x="0" y="13.311186027526857" style="font-family:Lato;font-size:14px;fill:#4b4b4b;font-weight:bold;">&lt;&lt;Enumeration&gt;&gt;</tspan>
      </text>
      <text x="0" y="0" width="62.9" height="18.45" transform="translate(58.5,22)">
        <tspan x="0" y="13.361186027526854" style="font-family:Lato;font-size:14px;fill:#4b4b4b;font-weight:bold;">Operator</tspan>
      </text>
      <text x="0" y="0" width="52.9" height="18.45" transform="translate(6,48)">
        <tspan x="0" y="13.361186027526854" style="font-family:Lato;font-size:14px;fill:#4b4b4b;">- equals</tspan>
      </text>
      <text x="0" y="0" width="80.65" height="18.45" transform="translate(6,66)">
        <tspan x="0" y="13.311186027526857" style="font-family:Lato;font-size:14px;fill:#4b4b4b;">- not_equals</tspan>
      </text>
      <text x="0" y="0" width="36.2" height="18.45" transform="translate(6,84)">
        <tspan x="0" y="13.311186027526857" style="font-family:Lato;font-size:14px;fill:#4b4b4b;">- less</tspan>
      </text>
      <text x="0" y="0" width="97.35" height="18.45" transform="translate(6,102)">
        <tspan x="0" y="13.361186027526854" style="font-family:Lato;font-size:14px;fill:#4b4b4b;">- less_or_equal</tspan>
      </text>
      <text x="0" y="0" width="58.45" height="18.45" transform="translate(6,120)">
        <tspan x="0" y="13.311186027526857" style="font-family:Lato;font-size:14px;fill:#4b4b4b;">- greater</tspan>
      </text>
      <text x="0" y="0" width="119.55" height="18.45" transform="translate(6,138)">
        <tspan x="0" y="13.361186027526854" style="font-family:Lato;font-size:14px;fill:#4b4b4b;">- greater_or_equal</tspan>
      </text>
      <text x="0" y="0" width="34" height="18.45" transform="translate(6,156)">
        <tspan x="0" y="13.311186027526857" style="font-family:Lato;font-size:14px;fill:#4b4b4b;">- like</tspan>
      </text>
      <text x="0" y="0" width="62.9" height="18.45" transform="translate(6,174)">
        <tspan x="0" y="13.311186027526857" style="font-family:Lato;font-size:14px;fill:#4b4b4b;">- not_like</tspan>
      </text>
    </g>
  </g>
  <g id="Connector-i8sd176o-ko149" transform="translate(-234.95,-370)">
    <g id="graphics">
      <path d="M 329.95 700 L 329.95 660 L 329.95 660 L 329.95 615 " fill="none" stroke="#f6902a" stroke-width="1.5"/>
    </g>
    <rect fill="#ffffff" x="0" y="0" width="6.65" height="15.55" transform="translate(324.6,664.95)"/>
    <text x="0" y="0" width="10.6" height="19.55" transform="translate(324.6,664.95)">
      <tspan x="8.85" y="15.533423233032225" style="font-family:Arial;font-size:12px;fill:#000000;">1</tspan>
    </text>
    <rect fill="#ffffff" x="0" y="0" width="44.45" height="15.55" transform="translate(305.7,630.45)"/>
    <text x="0" y="0" width="48.4" height="19.55" transform="translate(305.7,630.45)">
      <tspan x="8.9" y="15.533423233032225" style="font-family:Arial;font-size:12px;fill:#000000;">operator</tspan>
    </text>
    <rect fill="#ffffff" x="0" y="0" width="6.65" height="15.55" transform="translate(324.6,664.95)"/>
    <text x="0" y="0" width="10.6" height="19.55" transform="translate(324.6,664.95)">
      <tspan x="8.85" y="15.533423233032225" style="font-family:Arial;font-size:12px;fill:#000000;font-weight:bold;">1</tspan>
    </text>
    <rect fill="#ffffff" x="0" y="0" width="6.65" height="15.55" transform="translate(324.6,664.95)"/>
    <text x="0" y="0" width="10.6" height="19.55" transform="translate(324.6,664.95)">
      <tspan x="4.45" y="15.533423233032225" style="font-family:Arial;font-size:12px;fill:#000000;font-weight:bold;">1</tspan>
    </text>
    <rect fill="#ffffff" x="0" y="0" width="44.45" height="15.55" transform="translate(305.7,630.45)"/>
    <text x="0" y="0" width="48.4" height="19.55" transform="translate(305.7,630.45)">
      <tspan x="4.45" y="15.533423233032225" style="font-family:Arial;font-size:12px;fill:#000000;">operator</tspan>
    </text>
  </g>
  <g id="i8sd176o-ko151" transform="translate(190,330)">
    <desc>root/umlClass/class?version=3&amp;author=Cinergix</desc>
    <g id="image">
      <g id="graphics">
        <rect x="1" y="1" width="177.99842834472656" height="31" fill="none" stroke="#35a6e2" stroke-width="2" stroke-opacity="0" stroke-linejoin="round" stroke-linecap="round"/>
        <rect x="1" y="32" width="177.99842834472656" height="52.00423529893173" fill="none" stroke="#35a6e2" stroke-width="2" stroke-opacity="0" stroke-linejoin="round" stroke-linecap="round"/>
        <rect x="1" y="1" width="177.99842834472656" height="83.00423529893173" fill="#ffffff" stroke="#35a6e2" stroke-width="2" stroke-linejoin="round" stroke-linecap="round"/>
        <path d="M 1 32 L 178.99842834472656 32 " fill="none" stroke="#35a6e2" stroke-width="2" stroke-linejoin="round" stroke-linecap="round"/>
      </g>
      <text x="0" y="0" width="60.65" height="18.45" transform="translate(59.45,4)">
        <tspan x="0" y="13.311186027526857" style="font-family:Lato;font-size:14px;fill:#4b4b4b;font-weight:bold;">Function</tspan>
      </text>
      <text x="0" y="0" width="7.35" height="18.45" transform="translate(6,35)">
        <tspan x="0" y="13.311186027526857" style="font-family:Lato;font-size:14px;fill:#4b4b4b;"/>
      </text>
    </g>
  </g>
  <g id="Connector-i8sd176o-ko153" transform="translate(-234.95,-370)">
    <g id="graphics">
      <path d="M 514.95 700 L 514.95 658.8888888888888 L 514.95 658.8888888888888 L 514.95 615 " fill="none" stroke="#f6902a" stroke-width="1.5"/>
    </g>
    <rect fill="#ffffff" x="0" y="0" width="20" height="15.55" transform="translate(502.95,664.95)"/>
    <text x="0" y="0" width="24" height="19.55" transform="translate(502.95,664.95)">
      <tspan x="8.9" y="15.533423233032225" style="font-family:Arial;font-size:12px;fill:#000000;">0..1</tspan>
    </text>
    <rect fill="#ffffff" x="0" y="0" width="50" height="15.55" transform="translate(487.95,629.5)"/>
    <text x="0" y="0" width="54" height="19.55" transform="translate(487.95,629.5)">
      <tspan x="8.9" y="15.533423233032225" style="font-family:Arial;font-size:12px;fill:#000000;">predicate</tspan>
    </text>
  </g>
  <g id="i8sd176o-ko154" transform="translate(375.00000000000006,330)">
    <desc>root/umlClass/class?version=3&amp;author=Cinergix</desc>
    <g id="image">
      <g id="graphics">
        <rect x="1" y="1" width="177.99842834472656" height="44" fill="none" stroke="#35a6e2" stroke-width="2" stroke-opacity="0" stroke-linejoin="round" stroke-linecap="round"/>
        <rect x="1" y="45" width="177.99842834472656" height="52" fill="none" stroke="#35a6e2" stroke-width="2" stroke-opacity="0" stroke-linejoin="round" stroke-linecap="round"/>
        <rect x="1" y="1" width="177.99842834472656" height="96" fill="#ffffff" stroke="#35a6e2" stroke-width="2" stroke-linejoin="round" stroke-linecap="round"/>
        <path d="M 1 45 L 178.99842834472656 45 " fill="none" stroke="#35a6e2" stroke-width="2" stroke-linejoin="round" stroke-linecap="round"/>
      </g>
      <text x="0" y="0" width="95.1" height="18.45" transform="translate(42.95,4)">
        <tspan x="0" y="13.311186027526857" style="font-family:Lato;font-size:14px;fill:#4b4b4b;font-weight:bold;">&lt;&lt;Interface&gt;&gt;</tspan>
      </text>
      <text x="0" y="0" width="72.9" height="18.45" transform="translate(53.45,22)">
        <tspan x="0" y="13.361186027526854" style="font-family:Lato;font-size:14px;fill:#4b4b4b;font-weight:bold;">Expression</tspan>
      </text>
      <text x="0" y="0" width="7.35" height="18.45" transform="translate(6,48)">
        <tspan x="0" y="13.361186027526854" style="font-family:Lato;font-size:14px;fill:#4b4b4b;"/>
      </text>
    </g>
  </g>
  <g id="Connector-i8sd176o-ko156" transform="translate(-234.95,-370)">
    <g id="graphics">
      <path d="M 644.95 615 L 644.95 657.5022320963942 L 644.9555555555554 657.5022320963942 L 644.9555555555554 700 " fill="none" stroke="#f6902a" stroke-width="1.5"/>
    </g>
    <rect fill="#ffffff" x="0" y="0" width="17.8" height="15.55" transform="translate(634.05,629.5)"/>
    <text x="0" y="0" width="21.8" height="19.55" transform="translate(634.05,629.5)">
      <tspan x="7.75" y="15.533423233032225" style="font-family:Arial;font-size:12px;fill:#000000;font-weight:bold;">left</tspan>
    </text>
    <rect fill="#ffffff" x="0" y="0" width="6.65" height="15.55" transform="translate(639.6,664.95)"/>
    <text x="0" y="0" width="10.6" height="19.55" transform="translate(639.6,664.95)">
      <tspan x="7.75" y="15.533423233032225" style="font-family:Arial;font-size:12px;fill:#000000;font-weight:bold;">1</tspan>
    </text>
  </g>
  <g id="Connector-i8sd176o-ko157" transform="translate(-234.95,-370)">
    <g id="graphics">
      <path d="M 754.95 615 L 754.95 657.5022320963942 L 754.9555555555554 657.5022320963942 L 754.9555555555554 700 " fill="none" stroke="#f6902a" stroke-width="1.5"/>
    </g>
    <rect fill="#ffffff" x="0" y="0" width="34.45" height="15.55" transform="translate(735.7,629.5)"/>
    <text x="0" y="0" width="38.4" height="19.55" transform="translate(735.7,629.5)">
      <tspan x="7.8" y="15.533423233032225" style="font-family:Arial;font-size:12px;fill:#000000;font-weight:bold;">in_list</tspan>
    </text>
    <rect fill="#ffffff" x="0" y="0" width="17.8" height="15.55" transform="translate(744.05,664.95)"/>
    <text x="0" y="0" width="21.8" height="19.55" transform="translate(744.05,664.95)">
      <tspan x="7.75" y="15.533423233032225" style="font-family:Arial;font-size:12px;fill:#000000;font-weight:bold;">1..*</tspan>
    </text>
  </g>
  <g id="i8sd176o-ko158" transform="translate(560,330)">
    <desc>root/umlClass/class?version=3&amp;author=Cinergix</desc>
    <g id="image">
      <g id="graphics">
        <rect x="1" y="1" width="177.99842834472656" height="31" fill="none" stroke="#35a6e2" stroke-width="2" stroke-opacity="0" stroke-linejoin="round" stroke-linecap="round"/>
        <rect x="1" y="32" width="177.99842834472656" height="52.00423529893173" fill="none" stroke="#35a6e2" stroke-width="2" stroke-opacity="0" stroke-linejoin="round" stroke-linecap="round"/>
        <rect x="1" y="1" width="177.99842834472656" height="83.00423529893173" fill="#ffffff" stroke="#35a6e2" stroke-width="2" stroke-linejoin="round" stroke-linecap="round"/>
        <path d="M 1 32 L 178.99842834472656 32 " fill="none" stroke="#35a6e2" stroke-width="2" stroke-linejoin="round" stroke-linecap="round"/>
      </g>
      <text x="0" y="0" width="35.1" height="18.45" transform="translate(71.95,4)">
        <tspan x="0" y="13.311186027526857" style="font-family:Lato;font-size:14px;fill:#4b4b4b;font-weight:bold;">Field</tspan>
      </text>
      <text x="0" y="0" width="7.35" height="18.45" transform="translate(6,35)">
        <tspan x="0" y="13.311186027526857" style="font-family:Lato;font-size:14px;fill:#4b4b4b;"/>
      </text>
    </g>
  </g>
  <g id="Connector-i8sd176o-ko160" transform="translate(-234.95,-370)">
    <g id="graphics">
      <path d="M 884.95 615 L 884.95 657.5022320963942 L 884.9555555555555 657.5022320963942 L 884.9555555555555 700 " fill="none" stroke="#f6902a" stroke-width="1.5"/>
    </g>
    <rect fill="#ffffff" x="0" y="0" width="24.45" height="15.55" transform="translate(870.7,629.5)"/>
    <text x="0" y="0" width="28.4" height="19.55" transform="translate(870.7,629.5)">
      <tspan x="5.55" y="15.533423233032225" style="font-family:Arial;font-size:12px;fill:#000000;font-weight:bold;">field</tspan>
    </text>
    <rect fill="#ffffff" x="0" y="0" width="6.65" height="15.55" transform="translate(879.6,664.95)"/>
    <text x="0" y="0" width="10.6" height="19.55" transform="translate(879.6,664.95)">
      <tspan x="5.55" y="15.533423233032225" style="font-family:Arial;font-size:12px;fill:#000000;font-weight:bold;">1</tspan>
    </text>
  </g>
</svg>