<svg version="1.1" x="0" y="0" id="i8sd176o4" diagram-revision="13" width="690" height="330" xmlns="http://www.w3.org/2000/svg" xmlns:xml="http://www.w3.org/XML/1998/namespace" xmlns:xlink="http://www.w3.org/1999/xlink">
  <defs/>
  <g id="i8sd176o-ko108" transform="translate(10,35)">
    <desc>root/umlClass/class?version=3&amp;author=Cinergix</desc>
    <g id="image">
      <g id="graphics">
        <rect x="1" y="1" width="177.99842834472656" height="31" fill="none" stroke="#35a6e2" stroke-width="2" stroke-opacity="0" stroke-linejoin="round" stroke-linecap="round"/>
        <rect x="1" y="32" width="177.99842834472656" height="52.00446419278853" fill="none" stroke="#35a6e2" stroke-width="2" stroke-opacity="0" stroke-linejoin="round" stroke-linecap="round"/>
        <rect x="1" y="1" width="177.99842834472656" height="83.00446419278853" fill="#ffffff" stroke="#35a6e2" stroke-width="2" stroke-linejoin="round" stroke-linecap="round"/>
        <path d="M 1 32 L 178.99842834472656 32 " fill="none" stroke="#35a6e2" stroke-width="2" stroke-linejoin="round" stroke-linecap="round"/>
      </g>
      <text x="0" y="0" width="77" height="18" transform="translate(50.45,4)">
        <tspan x="0" y="13" style="font-family:Lato;font-size:14px;fill:#4b4b4b;font-weight:bold;">DataSource</tspan>
      </text>
      <text x="0" y="0" width="49" height="18" transform="translate(6,35)">
        <tspan x="0" y="13" style="font-family:Lato;font-size:14px;fill:#4b4b4b;">+ name</tspan>
      </text>
      <text x="0" y="0" width="42" height="18" transform="translate(6,53)">
        <tspan x="0" y="13" style="font-family:Lato;font-size:14px;fill:#4b4b4b;">+ alias</tspan>
      </text>
    </g>
  </g>
  <g id="i8sd176o-ko111" transform="translate(380,145)">
    <desc>root/umlClass/class?version=3&amp;author=Cinergix</desc>
    <g id="image">
      <g id="graphics">
        <rect x="1" y="1" width="177.99842834472656" height="31" fill="none" stroke="#35a6e2" stroke-width="2" stroke-opacity="0" stroke-linejoin="round" stroke-linecap="round"/>
        <rect x="1" y="32" width="177.99842834472656" height="52.00446419278853" fill="none" stroke="#35a6e2" stroke-width="2" stroke-opacity="0" stroke-linejoin="round" stroke-linecap="round"/>
        <rect x="1" y="1" width="177.99842834472656" height="83.00446419278853" fill="#ffffff" stroke="#35a6e2" stroke-width="2" stroke-linejoin="round" stroke-linecap="round"/>
        <path d="M 1 32 L 178.99842834472656 32 " fill="none" stroke="#35a6e2" stroke-width="2" stroke-linejoin="round" stroke-linecap="round"/>
      </g>
      <text x="0" y="0" width="90" height="18" transform="translate(43.95,4)">
        <tspan x="0" y="13" style="font-family:Lato;font-size:14px;fill:#4b4b4b;font-weight:bold;">JoinCondition</tspan>
      </text>
      <text x="0" y="0" width="7" height="18" transform="translate(6,35)">
        <tspan x="0" y="13" style="font-family:Lato;font-size:14px;fill:#4b4b4b;"/>
      </text>
    </g>
  </g>
  <g id="i8sd176o-ko109" transform="translate(380,240)">
    <desc>root/umlClass/class?version=3&amp;author=Cinergix</desc>
    <g id="image">
      <g id="graphics">
        <rect x="1" y="1" width="177.99842834472656" height="31" fill="none" stroke="#35a6e2" stroke-width="2" stroke-opacity="0" stroke-linejoin="round" stroke-linecap="round"/>
        <rect x="1" y="32" width="177.99842834472656" height="52.00446419278853" fill="none" stroke="#35a6e2" stroke-width="2" stroke-opacity="0" stroke-linejoin="round" stroke-linecap="round"/>
        <rect x="1" y="1" width="177.99842834472656" height="83.00446419278853" fill="#ffffff" stroke="#35a6e2" stroke-width="2" stroke-linejoin="round" stroke-linecap="round"/>
        <path d="M 1 32 L 178.99842834472656 32 " fill="none" stroke="#35a6e2" stroke-width="2" stroke-linejoin="round" stroke-linecap="round"/>
      </g>
      <text x="0" y="0" width="113" height="18" transform="translate(32.45,4)">
        <tspan x="0" y="13" style="font-family:Lato;font-size:14px;fill:#4b4b4b;font-weight:bold;">JoinConditionList</tspan>
      </text>
      <text x="0" y="0" width="7" height="18" transform="translate(6,35)">
        <tspan x="0" y="13" style="font-family:Lato;font-size:14px;fill:#4b4b4b;"/>
      </text>
    </g>
  </g>
  <g id="i8sd176o-ko110" transform="translate(10,145)">
    <desc>root/umlClass/class?version=3&amp;author=Cinergix</desc>
    <g id="image">
      <g id="graphics">
        <rect x="1" y="1" width="177.99842834472656" height="31" fill="none" stroke="#35a6e2" stroke-width="2" stroke-opacity="0" stroke-linejoin="round" stroke-linecap="round"/>
        <rect x="1" y="32" width="177.99842834472656" height="52.00446419278853" fill="none" stroke="#35a6e2" stroke-width="2" stroke-opacity="0" stroke-linejoin="round" stroke-linecap="round"/>
        <rect x="1" y="1" width="177.99842834472656" height="83.00446419278853" fill="#ffffff" stroke="#35a6e2" stroke-width="2" stroke-linejoin="round" stroke-linecap="round"/>
        <path d="M 1 32 L 178.99842834472656 32 " fill="none" stroke="#35a6e2" stroke-width="2" stroke-linejoin="round" stroke-linecap="round"/>
      </g>
      <text x="0" y="0" width="118" height="18" transform="translate(29.95,4)">
        <tspan x="0" y="13" style="font-family:Lato;font-size:14px;fill:#4b4b4b;font-weight:bold;">JoinedDataSource</tspan>
      </text>
      <text x="0" y="0" width="7" height="18" transform="translate(6,35)">
        <tspan x="0" y="13" style="font-family:Lato;font-size:14px;fill:#4b4b4b;"/>
      </text>
    </g>
  </g>
  <g id="Connector-i8sd176o-ko122" transform="translate(-275,-415)">
    <g id="graphics">
      <path d="M 375 535 L 375 560 " fill="none" stroke="#f6902a" stroke-width="1.5"/>
    </g>
    <g id="fromIcon" transform="translate(375,535)">
      <metadata id="metadata3277">
        <aaa:RDF xmlns:aaa="http://www.w3.org/1999/02/22-rdf-syntax-ns#"/>
      </metadata>
      <aaa:namedview pagecolor="#ffffff" bordercolor="#666666" borderopacity="1" objecttolerance="10" gridtolerance="10" guidetolerance="10" aab:pageopacity="0" aab:pageshadow="2" aab:window-width="1366" aab:window-height="706" id="namedview3273" showgrid="true" aab:zoom="45.254834" aab:cx="5.3422801" aab:cy="5.5253458" aab:window-x="-8" aab:window-y="-8" aab:window-maximized="1" aab:current-layer="Layer_1" xmlns:aaa="http://sodipodi.sourceforge.net/DTD/sodipodi-0.dtd" xmlns:aab="http://www.inkscape.org/namespaces/inkscape"/>
      <polygon points="0,0 -8,8 8,8 " id="polygon3271" transform="translate(0.00396088,0.7512019)" style="stroke-width:1.5;stroke:#f6902a;fill:#ffffff;" stroke="#f6902a" stroke-width="1.5"/>
    </g>
  </g>
  <g id="Connector-i8sd176o-ko126" transform="translate(-275,-415)">
    <g id="graphics">
      <path d="M 465 605 L 655 605 " fill="none" stroke="#f6902a" stroke-width="1.5"/>
    </g>
    <rect fill="#ffffff" x="0" y="0" width="19" height="12" transform="translate(480,596.5)"/>
    <text x="0" y="0" width="23" height="16" transform="translate(480,596.5)">
      <tspan x="8" y="13" style="font-family:Lato;font-size:12px;fill:#000000;">0..1</tspan>
    </text>
    <rect fill="#ffffff" x="0" y="0" width="20" height="16" transform="translate(616,594.5)"/>
    <text x="0" y="0" width="24" height="20" transform="translate(616,594.5)">
      <tspan x="8" y="16" style="font-family:Arial;font-size:12px;fill:#000000;font-weight:bold;">0..1</tspan>
    </text>
  </g>
  <g id="Connector-i8sd176o-ko127" transform="translate(-275,-415)">
    <g id="graphics">
      <path d="M 465 605 L 559.9992141723633 605 L 559.9992141723633 700 L 655 700 " fill="none" stroke="#f6902a" stroke-width="1.5"/>
    </g>
    <rect fill="#ffffff" x="0" y="0" width="48" height="16" transform="translate(480,594.5)"/>
    <text x="0" y="0" width="52" height="20" transform="translate(480,594.5)">
      <tspan x="8" y="16" style="font-family:Arial;font-size:12px;fill:#000000;">condition</tspan>
    </text>
    <rect fill="#ffffff" x="0" y="0" width="20" height="16" transform="translate(616,689.5)"/>
    <text x="0" y="0" width="24" height="20" transform="translate(616,689.5)">
      <tspan x="8" y="15" style="font-family:Arial;font-size:12px;fill:#000000;font-weight:bold;">0..1</tspan>
    </text>
  </g>
  <g id="Comment-i8sd176o-ko128" transform="translate(250,60)">
    <desc>root/uml/sequence/comment?version=1&amp;author=Cinergix</desc>
    <g id="image">
      <g>
        <path vector-effect="non-scaling-stroke" fill="#FFFFFF" stroke="#f3b562" d="M100,0" style="stroke-width:1.5;stroke:#f3b562;" stroke-width="1.5"/>
        <path vector-effect="non-scaling-stroke" fill="#FFFFFF" stroke="#f3b562" d="M79.881,15.747" style="stroke-width:1.5;stroke:#f3b562;" stroke-width="1.5"/>
        <path vector-effect="non-scaling-stroke" fill="#FFFFFF" stroke="#f3b562" d="M76.424,0.5H0.5v70h100V20.678" style="stroke-width:1.5;stroke:#f3b562;" stroke-width="1.5"/>
        <line vector-effect="non-scaling-stroke" fill="none" stroke="#f3b562" x1="75.585" y1="-0.033" x2="100.348" y2="19.948" style="stroke-width:1.5;stroke:#f3b562;" stroke-width="1.5"/>
        <line vector-effect="non-scaling-stroke" fill="none" stroke="#f3b562" x1="74.745" y1="19.948" x2="100.348" y2="19.948" style="stroke-width:1.5;stroke:#f3b562;" stroke-width="1.5"/>
        <line vector-effect="non-scaling-stroke" fill="none" stroke="#f3b562" x1="75.212" y1="19.668" x2="75.212" y2="-0.332" style="stroke-width:1.5;stroke:#f3b562;" stroke-width="1.5"/>
      </g>
    </g>
    <text x="0" y="0" width="87" height="20" transform="translate(6.5,24.5)">
      <tspan x="5" y="15" style="font-family:Lato;font-size:14px;fill:#4b4b4b;">Choose One</tspan>
    </text>
  </g>
  <g id="Connector-i8sd176o-ko131" transform="translate(-275,-415)">
    <g id="graphics">
      <path d="M 575 545 L 599 698 " fill="none" stroke="#f3b562" stroke-width="1.5" stroke-dasharray="5,5,2,5"/>
    </g>
  </g>
  <g id="Connector-i8sd176o-ko132" transform="translate(-275,-415)">
    <g id="graphics">
      <path d="M 575 545 L 604 603 " fill="none" stroke="#f3b562" stroke-width="1.5" stroke-dasharray="5,5,2,5"/>
    </g>
  </g>
  <g id="i8sd176o-ko171" transform="translate(505,5)">
    <desc>root/umlClass/class?version=3&amp;author=Cinergix</desc>
    <g id="image">
      <g id="graphics">
        <rect x="1" y="1" width="177.99842834472656" height="31" fill="none" stroke="#35a6e2" stroke-width="2" stroke-opacity="0" stroke-linejoin="round" stroke-linecap="round"/>
        <rect x="1" y="32" width="177.99842834472656" height="52.00423529893173" fill="none" stroke="#35a6e2" stroke-width="2" stroke-opacity="0" stroke-linejoin="round" stroke-linecap="round"/>
        <rect x="1" y="1" width="177.99842834472656" height="83.00423529893173" fill="#ffffff" stroke="#35a6e2" stroke-width="2" stroke-linejoin="round" stroke-linecap="round"/>
        <path d="M 1 32 L 178.99842834472656 32 " fill="none" stroke="#35a6e2" stroke-width="2" stroke-linejoin="round" stroke-linecap="round"/>
      </g>
      <text x="0" y="0" width="34" height="18" transform="translate(71.95,4)">
        <tspan x="0" y="13" style="font-family:Lato;font-size:14px;fill:#4b4b4b;font-weight:bold;">Field</tspan>
      </text>
      <text x="0" y="0" width="7" height="18" transform="translate(6,35)">
        <tspan x="0" y="13" style="font-family:Lato;font-size:14px;fill:#4b4b4b;"/>
      </text>
    </g>
  </g>
  <g id="Connector-i8sd176o-ko125" transform="translate(-275,-415)">
    <g id="graphics">
      <path d="M 835 670 L 895 670 L 895 605 L 835 605 " fill="none" stroke="#f6902a" stroke-width="1.5"/>
    </g>
    <g id="toIcon" transform="translate(835,605) rotate(-90)">
      <metadata id="metadata3157">
        <aaa:RDF xmlns:aaa="http://www.w3.org/1999/02/22-rdf-syntax-ns#"/>
      </metadata>
      <aaa:namedview pagecolor="#ffffff" bordercolor="#666666" borderopacity="1" objecttolerance="10" gridtolerance="10" guidetolerance="10" aab:pageopacity="0" aab:pageshadow="2" aab:window-width="1366" aab:window-height="706" id="namedview3153" showgrid="true" aab:zoom="256" aab:cx="1.1414314" aab:cy="9.6660507" aab:window-x="-8" aab:window-y="-8" aab:window-maximized="1" aab:current-layer="Layer_1" xmlns:aaa="http://sodipodi.sourceforge.net/DTD/sodipodi-0.dtd" xmlns:aab="http://www.inkscape.org/namespaces/inkscape"/>
      <polyline points="-8,8 0,0 8,8  " id="polyline3151" transform="translate(0.00331331,0.73371025)" style="stroke-width:1.5;stroke:#f6902a;fill:none;" stroke="#f6902a" stroke-width="1.5"/>
    </g>
    <rect fill="#ffffff" x="0" y="0" width="54" height="16" transform="translate(850,659.5)"/>
    <text x="0" y="0" width="58" height="20" transform="translate(850,659.5)">
      <tspan x="5" y="15" style="font-family:Arial;font-size:12px;fill:#000000;">conditions</tspan>
    </text>
    <rect fill="#ffffff" x="0" y="0" width="17" height="14" transform="translate(850,595.5)"/>
    <text x="0" y="0" width="21" height="18" transform="translate(850,595.5)">
      <tspan x="5" y="14" style="font-family:Lato;font-size:12px;fill:#000000;">1..*</tspan>
    </text>
  </g>
  <g id="Connector-i8sd176o-ko173" transform="translate(-275,-415)">
    <g id="graphics">
      <path d="M 925 505 L 925 575 L 835 575 " fill="none" stroke="#f6902a" stroke-width="1.5"/>
    </g>
    <rect fill="#ffffff" x="0" y="0" width="6" height="16" transform="translate(920,519.5)"/>
    <text x="0" y="0" width="10" height="20" transform="translate(920,519.5)">
      <tspan x="3" y="15" style="font-family:Arial;font-size:12px;fill:#000000;font-weight:bold;">1</tspan>
    </text>
    <rect fill="#ffffff" x="0" y="0" width="26" height="16" transform="translate(850,564.5)"/>
    <text x="0" y="0" width="30" height="20" transform="translate(850,564.5)">
      <tspan x="3" y="16" style="font-family:Arial;font-size:12px;fill:#000000;font-weight:bold;">right</tspan>
    </text>
  </g>
  <g id="Connector-i8sd176o-ko174" transform="translate(-275,-415)">
    <g id="graphics">
      <path d="M 870 505 L 870 532.5021176494658 L 800 532.5021176494658 L 800 560 " fill="none" stroke="#f6902a" stroke-width="1.5"/>
    </g>
    <rect fill="#ffffff" x="0" y="0" width="6" height="16" transform="translate(865,519.5)"/>
    <text x="0" y="0" width="10" height="20" transform="translate(865,519.5)">
      <tspan x="3" y="15" style="font-family:Arial;font-size:12px;fill:#000000;font-weight:bold;">1</tspan>
    </text>
    <rect fill="#ffffff" x="0" y="0" width="18" height="16" transform="translate(789,524.5)"/>
    <text x="0" y="0" width="22" height="20" transform="translate(789,524.5)">
      <tspan x="3" y="16" style="font-family:Arial;font-size:12px;fill:#000000;font-weight:bold;">left</tspan>
    </text>
  </g>
</svg>